<?xml version="1.0" encoding="UTF-8" standalone="no"?>
<!-- Created with Inkscape (http://www.inkscape.org/) -->

<svg
   xmlns:dc="http://purl.org/dc/elements/1.1/"
   xmlns:cc="http://creativecommons.org/ns#"
   xmlns:rdf="http://www.w3.org/1999/02/22-rdf-syntax-ns#"
   xmlns:svg="http://www.w3.org/2000/svg"
   xmlns="http://www.w3.org/2000/svg"
   xmlns:sodipodi="http://sodipodi.sourceforge.net/DTD/sodipodi-0.dtd"
   xmlns:inkscape="http://www.inkscape.org/namespaces/inkscape"
   width="279.54752mm"
   height="64.094398mm"
   viewBox="0 0 279.54752 64.094398"
   version="1.1"
   id="svg8"
   sodipodi:docname="servicebox.svg"
   inkscape:export-filename="servicebox.png"
   inkscape:export-xdpi="16.129034"
   inkscape:export-ydpi="16.129034"
   inkscape:version="0.92.3 (2405546, 2018-03-11)">
  <title
     id="title828">ServiceBox</title>
  <defs
     id="defs2" />
  <sodipodi:namedview
     id="base"
     pagecolor="#ffffff"
     bordercolor="#666666"
     borderopacity="1.0"
     inkscape:pageopacity="1"
     inkscape:pageshadow="2"
     inkscape:zoom="0.5"
     inkscape:cx="897.56545"
     inkscape:cy="115.80513"
     inkscape:document-units="mm"
     inkscape:current-layer="text825"
     showgrid="false"
     fit-margin-top="10"
     fit-margin-bottom="10"
     fit-margin-right="10"
     fit-margin-left="10"
     inkscape:window-width="1858"
     inkscape:window-height="1061"
     inkscape:window-x="57"
     inkscape:window-y="-5"
     inkscape:window-maximized="1"
     showguides="true"
     inkscape:pagecheckerboard="true" />
  <metadata
     id="metadata5">
    <rdf:RDF>
      <cc:Work
         rdf:about="">
        <dc:format>image/svg+xml</dc:format>
        <dc:type
           rdf:resource="http://purl.org/dc/dcmitype/StillImage" />
        <dc:title>ServiceBox</dc:title>
        <dc:creator>
          <cc:Agent>
            <dc:title>Petr Doležal</dc:title>
          </cc:Agent>
        </dc:creator>
        <cc:license
           rdf:resource="http://creativecommons.org/licenses/by-nc-nd/4.0/" />
      </cc:Work>
      <cc:License
         rdf:about="http://creativecommons.org/licenses/by-nc-nd/4.0/">
        <cc:permits
           rdf:resource="http://creativecommons.org/ns#Reproduction" />
        <cc:permits
           rdf:resource="http://creativecommons.org/ns#Distribution" />
        <cc:requires
           rdf:resource="http://creativecommons.org/ns#Notice" />
        <cc:requires
           rdf:resource="http://creativecommons.org/ns#Attribution" />
        <cc:prohibits
           rdf:resource="http://creativecommons.org/ns#CommercialUse" />
      </cc:License>
    </rdf:RDF>
  </metadata>
  <g
     inkscape:label="Graphics"
     inkscape:groupmode="layer"
     id="layer1"
     transform="translate(248.18256,-50.557791)">
    <g
       aria-label="Yetamine"
       style="font-style:normal;font-variant:normal;font-weight:500;font-stretch:normal;font-size:50.79999924px;line-height:125%;font-family:'Hobo Std';-inkscape-font-specification:'Hobo Std, Medium';font-variant-ligatures:normal;font-variant-caps:normal;font-variant-numeric:normal;font-feature-settings:normal;text-align:start;letter-spacing:0px;word-spacing:0px;writing-mode:lr-tb;text-anchor:start;fill:#000000;fill-opacity:1;stroke:none;stroke-width:0.26458332px;stroke-linecap:butt;stroke-linejoin:miter;stroke-opacity:1"
       id="text3715-5">
      <g
         id="g5384">
        <g
           aria-label="yofl"
           style="font-style:normal;font-variant:normal;font-weight:500;font-stretch:normal;font-size:16.93333244px;line-height:125%;font-family:'Hobo Std';-inkscape-font-specification:'Hobo Std, Medium';font-variant-ligatures:normal;font-variant-caps:normal;font-variant-numeric:normal;font-feature-settings:normal;text-align:start;letter-spacing:0px;word-spacing:0px;writing-mode:lr-tb;text-anchor:start;fill:#000000;fill-opacity:1;stroke:none;stroke-width:0.26458332px;stroke-linecap:butt;stroke-linejoin:miter;stroke-opacity:1"
           id="text1379">
          <g
             aria-label="ServiceBox"
             style="font-style:normal;font-variant:normal;font-weight:normal;font-stretch:normal;font-size:16.93333244px;line-height:125%;font-family:Verdana;-inkscape-font-specification:Verdana;letter-spacing:0px;word-spacing:0px;fill:#000000;fill-opacity:1;stroke:none;stroke-width:0.26458332px;stroke-linecap:butt;stroke-linejoin:miter;stroke-opacity:1"
             id="text825">
            <g
               id="g844">
              <path
                 id="path827"
                 style="font-style:normal;font-variant:normal;font-weight:500;font-stretch:normal;font-size:50.79999924px;font-family:'Hobo Std';-inkscape-font-specification:'Hobo Std, Medium';font-variant-ligatures:normal;font-variant-caps:normal;font-variant-numeric:normal;font-feature-settings:normal;text-align:start;writing-mode:lr-tb;text-anchor:start;stroke-width:0.26458332px"
                 d="m -215.06856,72.292591 c 1.4224,0 4.064,-4.6228 4.064,-6.0452 0,-1.4732 -5.2324,-5.3848 -12.5984,-5.3848 -10.3124,0 -13.208,7.2644 -13.208,11.5316 0,4.318 1.2192,9.347199 12.3444,12.801599 2.9464,0.9144 7.5184,2.4384 7.5184,6.1468 0,3.1496 -3.3528,4.826 -7.2136,4.826 -10.922,0 -10.0584,-10.3124 -10.922,-10.3124 -0.508,0 -3.0988,2.54 -3.0988,6.858 0,8.0772 7.3152,11.938 14.5288,11.938 10.7188,0 14.9352,-7.2644 14.9352,-13.1572 0,-4.826 -2.1844,-9.9568 -12.8524,-13.512799 -2.794,-0.9652 -7.8232,-2.3876 -7.8232,-6.0452 0,-2.9464 3.2512,-4.2164 5.7912,-4.2164 5.2832,0 7.2644,4.572 8.5344,4.572 z"
                 inkscape:connector-curvature="0" />
              <path
                 id="path829"
                 style="font-style:normal;font-variant:normal;font-weight:500;font-stretch:normal;font-size:50.79999924px;font-family:'Hobo Std';-inkscape-font-specification:'Hobo Std, Medium';font-variant-ligatures:normal;font-variant-caps:normal;font-variant-numeric:normal;font-feature-settings:normal;text-align:start;writing-mode:lr-tb;text-anchor:start;stroke-width:0.26458332px"
                 d="m -193.09836,104.65219 c 6.096,0 11.0744,-3.7084 11.0744,-10.16 0,-0.4064 -0.1524,-3.048 -0.9144,-3.048 -0.7112,0 -0.7112,6.35 -9.0424,6.35 -2.54,0 -6.4008,-1.7272 -6.4008,-4.1148 0,-5.2832 16.3576,-2.9972 16.3576,-13.9192 0,-5.994399 -4.7244,-9.143999 -10.3124,-9.143999 -6.8072,0 -13.6144,6.096 -13.6144,18.389599 0,8.128 3.7592,15.6464 12.8524,15.6464 z m 0.508,-28.041599 c 1.9304,0 4.2672,1.3716 4.2672,3.860799 0,2.5908 -9.2456,4.6228 -9.8552,4.6228 -0.6604,0 -0.9144,-0.5588 -0.9144,-1.1176 0,-2.9464 2.3876,-7.365999 6.5024,-7.365999 z"
                 inkscape:connector-curvature="0" />
              <path
                 id="path831"
                 style="font-style:normal;font-variant:normal;font-weight:500;font-stretch:normal;font-size:50.79999924px;font-family:'Hobo Std';-inkscape-font-specification:'Hobo Std, Medium';font-variant-ligatures:normal;font-variant-caps:normal;font-variant-numeric:normal;font-feature-settings:normal;text-align:start;writing-mode:lr-tb;text-anchor:start;stroke-width:0.26458332px"
                 d="m -171.08211,103.89019 c 0.5588,0 1.6764,0 1.7272,-0.8128 0,-0.9144 -1.7272,-5.1816 -1.7272,-15.2908 0,-3.048 0.3048,-9.905999 4.572,-9.905999 3.5052,0 2.794,3.403599 3.4036,3.403599 1.524,0 4.4196,-2.1336 4.4196,-5.689599 0,-2.7432 -2.1336,-4.9784 -4.7244,-4.9784 -1.3716,0 -2.5908,0.8128 -3.6576,1.5748 -1.0668,0.8128 -1.9304,1.6256 -2.6924,1.6256 -1.016,0 -1.1176,-0.9652 -1.2192,-1.7272 -0.0508,-0.9652 -0.9652,-0.7112 -1.7272,-0.7112 h -4.2164 c -1.4224,0.0508 -1.016,3.2004 -1.016,17.271999 0,16.8148 0.9144,15.24 2.794,15.24 z"
                 inkscape:connector-curvature="0" />
              <path
                 id="path833"
                 style="font-style:normal;font-variant:normal;font-weight:500;font-stretch:normal;font-size:50.79999924px;font-family:'Hobo Std';-inkscape-font-specification:'Hobo Std, Medium';font-variant-ligatures:normal;font-variant-caps:normal;font-variant-numeric:normal;font-feature-settings:normal;text-align:start;writing-mode:lr-tb;text-anchor:start;stroke-width:0.26458332px"
                 d="m -136.06187,71.378191 c -1.016,0 -1.524,-0.1016 -1.524,1.0668 0,1.5748 0.3048,2.9972 0.3048,4.7752 0,9.905999 -3.302,16.865599 -5.08,16.865599 -1.1684,0 -4.8768,-4.9276 -4.8768,-17.424399 0,-2.2352 0.254,-3.302 0.254,-4.4704 0,-1.0668 -1.4732,-0.8128 -2.1844,-0.8128 h -3.9116 c -1.3716,0 -1.5748,0.1016 -1.5748,1.5748 0,23.164799 10.2108,31.699199 11.3792,31.699199 1.6764,0 12.7,-9.0424 12.7,-30.378399 0,-2.8956 -0.3556,-2.8956 -2.1336,-2.8956 z"
                 inkscape:connector-curvature="0" />
              <path
                 id="path854"
                 d="m -121.04412,103.89019 c 1.1684,0 2.6924,0.3048 2.6924,-1.3208 0,-0.4572 -1.9812,-8.3312 -1.9812,-21.1328 0,-5.537199 0.6096,-7.416799 0.6096,-9.296399 0,-0.6096 -0.0508,-0.762 -2.1844,-0.762 h -2.794 c -1.6764,0 -2.4892,-1.6764 -2.4892,15.697199 0,17.8816 0.2032,16.8148 2.6924,16.8148 z"
                 style="font-style:normal;font-variant:normal;font-weight:500;font-stretch:normal;font-size:50.79999924px;font-family:'Hobo Std';-inkscape-font-specification:'Hobo Std, Medium';font-variant-ligatures:normal;font-variant-caps:normal;font-variant-numeric:normal;font-feature-settings:normal;text-align:start;writing-mode:lr-tb;text-anchor:start;stroke-width:0.26458332px"
                 inkscape:connector-curvature="0" />
              <path
                 id="path835"
                 d="m -122.72052,67.415791 c 2.032,0 3.9116,-1.1684 3.9116,-3.3528 0,-2.1844 -1.8796,-3.5052 -3.9116,-3.5052 -2.032,0 -3.9116,1.3208 -3.9116,3.5052 0,2.1844 1.8796,3.3528 3.9116,3.3528 z"
                 style="font-style:normal;font-variant:normal;font-weight:500;font-stretch:normal;font-size:50.79999924px;font-family:'Hobo Std';-inkscape-font-specification:'Hobo Std, Medium';font-variant-ligatures:normal;font-variant-caps:normal;font-variant-numeric:normal;font-feature-settings:normal;text-align:start;writing-mode:lr-tb;text-anchor:start;fill:#800000;fill-opacity:1;stroke-width:0.26458332px"
                 inkscape:connector-curvature="0" />
              <path
                 id="path837"
                 style="font-style:normal;font-variant:normal;font-weight:500;font-stretch:normal;font-size:50.79999924px;font-family:'Hobo Std';-inkscape-font-specification:'Hobo Std, Medium';font-variant-ligatures:normal;font-variant-caps:normal;font-variant-numeric:normal;font-feature-settings:normal;text-align:start;writing-mode:lr-tb;text-anchor:start;stroke-width:0.26458332px"
                 d="m -102.97837,104.65219 c 5.994404,0 10.007604,-3.7592 10.007604,-9.8552 0,-2.0828 -0.508,-2.9972 -0.762,-2.9972 -0.4572,0 -1.7272,5.0292 -7.213604,5.0292 -4.826,0 -7.1628,-4.1148 -7.1628,-9.0424 0,-4.2672 1.8796,-11.175999 7.112,-11.175999 4.114804,0 3.911604,3.759199 5.080004,3.759199 1.8796,0 2.9972,-2.946399 2.9972,-4.470399 0,-2.8956 -3.2004,-5.2832 -7.620004,-5.2832 -10.0076,0 -14.4272,9.905999 -14.4272,18.643599 0,7.4168 3.556,15.3924 11.9888,15.3924 z"
                 inkscape:connector-curvature="0" />
              <path
                 id="path839"
                 style="font-style:normal;font-variant:normal;font-weight:500;font-stretch:normal;font-size:50.79999924px;font-family:'Hobo Std';-inkscape-font-specification:'Hobo Std, Medium';font-variant-ligatures:normal;font-variant-caps:normal;font-variant-numeric:normal;font-feature-settings:normal;text-align:start;writing-mode:lr-tb;text-anchor:start;stroke-width:0.26458332px"
                 d="m -77.310079,104.65219 c 6.096,0 11.0744,-3.7084 11.0744,-10.16 0,-0.4064 -0.1524,-3.048 -0.9144,-3.048 -0.7112,0 -0.7112,6.35 -9.0424,6.35 -2.54,0 -6.4008,-1.7272 -6.4008,-4.1148 0,-5.2832 16.3576,-2.9972 16.3576,-13.9192 0,-5.994399 -4.7244,-9.143999 -10.3124,-9.143999 -6.8072,0 -13.6144,6.096 -13.6144,18.389599 0,8.128 3.7592,15.6464 12.8524,15.6464 z m 0.508,-28.041599 c 1.9304,0 4.2672,1.3716 4.2672,3.860799 0,2.5908 -9.2456,4.6228 -9.8552,4.6228 -0.6604,0 -0.9144,-0.5588 -0.9144,-1.1176 0,-2.9464 2.3876,-7.365999 6.5024,-7.365999 z"
                 inkscape:connector-curvature="0" />
              <path
                 id="path841"
                 style="font-style:normal;font-variant:normal;font-weight:500;font-stretch:normal;font-size:50.79999924px;font-family:'Hobo Std';-inkscape-font-specification:'Hobo Std, Medium';font-variant-ligatures:normal;font-variant-caps:normal;font-variant-numeric:normal;font-feature-settings:normal;text-align:start;writing-mode:lr-tb;text-anchor:start;stroke-width:0.26458332px"
                 d="m -43.914629,103.89019 c 8.3312,0 11.3284,-4.826 11.3284,-9.8044 0,-8.7376 -8.1788,-12.8524 -8.1788,-14.6304 0,-1.574799 5.7912,-4.825999 5.7912,-10.413999 0,-3.2512 -1.3716,-7.4168 -10.3632,-7.4168 h -13.1572 c -0.8636,0 -3.5052,-0.9144 -3.5052,24.180799 0,19.05 1.524,18.0848 2.794,18.0848 z m -4.8768,-19.7104 c 0.5588,-0.3048 1.4732,-0.8636 2.1336,-0.8636 1.3716,0 5.842,5.08 5.842,8.6868 0,3.9624 -3.7084,5.3848 -7.366,5.3848 -4.1656,0 -6.096,-0.9652 -6.096,-8.6868 0,-1.6764 0.8128,-1.9812 2.1844,-2.7432 z m -1.7272,-5.2324 c -0.8128,0.5588 -2.1336,1.1176 -2.7432,1.1176 -1.4224,0 -1.3208,-1.320799 -1.3208,-2.336799 0,-7.9248 2.286,-10.1092 7.3152,-10.1092 1.9304,0 4.064,0.6096 4.064,3.048 0,2.0828 -2.1336,4.572 -3.6068,5.6388 z"
                 inkscape:connector-curvature="0" />
              <path
                 id="path843"
                 style="font-style:normal;font-variant:normal;font-weight:500;font-stretch:normal;font-size:50.79999924px;font-family:'Hobo Std';-inkscape-font-specification:'Hobo Std, Medium';font-variant-ligatures:normal;font-variant-caps:normal;font-variant-numeric:normal;font-feature-settings:normal;text-align:start;writing-mode:lr-tb;text-anchor:start;fill:#800000;fill-opacity:1;stroke-width:0.26458332px"
                 d="m -17.086682,104.65219 c 5.842,0 12.7508,-5.1308 12.7508,-17.0688 0,-8.1788 -3.9116,-16.967199 -12.7508,-16.967199 -8.8392,0 -12.7508,8.788399 -12.7508,16.967199 0,11.938 6.9088,17.0688 12.7508,17.0688 z m 0,-8.4836 c -5.1308,0 -6.4516,-5.7912 -6.4516,-9.8552 0,-4.0132 1.4224,-9.702799 6.4516,-9.702799 5.0292,0 6.4516,5.689599 6.4516,9.702799 0,4.064 -1.3208,9.8552 -6.4516,9.8552 z"
                 inkscape:connector-curvature="0" />
              <path
                 id="path845"
                 style="font-style:normal;font-variant:normal;font-weight:500;font-stretch:normal;font-size:50.79999924px;font-family:'Hobo Std';-inkscape-font-specification:'Hobo Std, Medium';font-variant-ligatures:normal;font-variant-caps:normal;font-variant-numeric:normal;font-feature-settings:normal;text-align:start;writing-mode:lr-tb;text-anchor:start;stroke-width:0.26458332px"
                 d="m 19.434555,103.89019 c 1.8796,0 1.9304,0 1.9304,-2.6416 0,-10.3632 -6.7564,-12.5984 -6.7564,-14.9352 0,-1.3208 5.7912,-5.0292 5.7912,-13.207999 0,-1.778 -0.7112,-1.7272 -2.1336,-1.7272 h -2.54 c -2.1844,0 -1.778,0 -2.1844,2.3368 -0.4572,6.553199 -2.641599,8.788399 -3.352799,8.788399 -1.4732004,0 -4.0640004,-4.114799 -4.0640004,-10.058399 0,-1.2192 -0.6604,-1.0668 -1.6256,-1.0668 H 0.79095568 c -1.72719998,0 -2.08279998,-0.0508 -2.08279998,1.9304 0,9.550399 5.2831999,12.598399 5.2831999,14.477999 0,1.1176 -5.8927999,5.9436 -5.8927999,14.478 0,1.8288 0.3048,1.6256 1.72719999,1.6256 H 2.9753556 c 1.9812,0 1.9812,-0.2032 1.9812,-2.3368 0,-5.7404 2.5908,-9.8552 3.9116,-9.8552 1.3716004,0 5.0799994,4.4704 5.0799994,11.1252 0,1.2192 0.6096,1.0668 1.6764,1.0668 z"
                 inkscape:connector-curvature="0" />
            </g>
            <path
               style="opacity:1;fill:#800000;fill-opacity:1;fill-rule:nonzero;stroke:#000000;stroke-width:2.82924628;stroke-linecap:butt;stroke-linejoin:round;stroke-miterlimit:4;stroke-dasharray:none;stroke-opacity:1"
               d=""
               id="path848"
               inkscape:connector-curvature="0"
               transform="matrix(0.26458333,0,0,0.26458333,-253.18256,50.557791)" />
          </g>
        </g>
        <flowRoot
           xml:space="preserve"
           id="flowRoot1381"
           style="font-style:normal;font-variant:normal;font-weight:normal;font-stretch:normal;font-size:64px;line-height:125%;font-family:Verdana;-inkscape-font-specification:Verdana;letter-spacing:0px;word-spacing:0px;fill:#000000;fill-opacity:1;stroke:none;stroke-width:1px;stroke-linecap:butt;stroke-linejoin:miter;stroke-opacity:1"
           transform="matrix(0.26458333,0,0,0.26458333,-9.7561911,50.200453)"><flowRegion
             id="flowRegion1383"><rect
               id="rect1385"
               width="637.14288"
               height="285.71429"
               x="202.85715"
               y="30.817974" /></flowRegion><flowPara
             id="flowPara1387" /></flowRoot>      </g>
    </g>
  </g>
</svg>
